<svg width="144" height="26" viewBox="0 0 144 26" fill="none" xmlns="http://www.w3.org/2000/svg">
<path fill-rule="evenodd" clip-rule="evenodd" d="M1.49995 18.1965C0.833296 18.5814 0.833297 19.5436 1.49995 19.9285L11.5 25.7022C11.8094 25.8808 12.1906 25.8808 12.5 25.7022L22.5 19.9285C23.1667 19.5436 23.1667 18.5814 22.5 18.1964L12.5 12.4228C12.1906 12.2441 11.8094 12.2441 11.5 12.4228L1.49995 18.1965Z" fill="#FF822A"/>
<path fill-rule="evenodd" clip-rule="evenodd" d="M0.899973 6.41792C0.408628 6.7016 0.25146 7.33679 0.553823 7.81687L11.4872 25.1764C11.7735 25.631 12.368 25.7781 12.8333 25.5094L23.1 19.5818C23.5914 19.2981 23.7485 18.6629 23.4462 18.1829L12.5128 0.823382C12.2265 0.368716 11.632 0.221622 11.1667 0.490292L0.899973 6.41792Z" fill="url(#paint0_linear_16412_16532)"/>
<path fill-rule="evenodd" clip-rule="evenodd" d="M1.49995 6.07151C0.833296 6.45641 0.833297 7.41865 1.49995 7.80355L11.5 13.5772C11.8094 13.7559 12.1906 13.7559 12.5 13.5772L22.5 7.80355C23.1667 7.41865 23.1667 6.45641 22.5 6.07151L12.5 0.297834C12.1906 0.119193 11.8094 0.119194 11.5 0.297834L1.49995 6.07151Z" fill="#71BFD8"/>
<path d="M38.648 21.0091C37.4624 21.0091 36.3826 20.791 35.4087 20.3548C34.4348 19.9186 33.6444 19.3064 33.0374 18.5184C32.4446 17.7303 32.0988 16.8227 32 15.7954L34.4136 15.3733C34.456 16.0487 34.6677 16.6538 35.0488 17.1886C35.4299 17.7233 35.938 18.1455 36.5732 18.4551C37.2083 18.7646 37.9141 18.9194 38.6904 18.9194C39.3538 18.9194 39.9325 18.8139 40.4265 18.6028C40.9346 18.3777 41.3228 18.0821 41.5909 17.7163C41.8732 17.3504 42.0144 16.9353 42.0144 16.4709C42.0144 15.9221 41.7885 15.4788 41.3369 15.1411C40.8852 14.7893 40.1654 14.5008 39.1773 14.2756L36.9543 13.7901C35.5004 13.4665 34.4277 12.981 33.7361 12.3337C33.0586 11.6864 32.7198 10.8209 32.7198 9.73738C32.7198 8.82269 32.9457 8.00651 33.3974 7.28883C33.8631 6.55708 34.5054 5.99419 35.324 5.60017C36.1427 5.20616 37.0813 5.00915 38.1399 5.00915C39.0997 5.00915 39.9678 5.18505 40.7441 5.53685C41.5345 5.88865 42.1838 6.38821 42.6919 7.03553C43.2 7.66878 43.5176 8.40053 43.6446 9.23078L41.2945 9.8007C41.2522 9.26596 41.0899 8.80158 40.8076 8.40756C40.5253 7.99947 40.1512 7.68285 39.6855 7.45769C39.2197 7.21847 38.7045 7.09886 38.1399 7.09886C37.5612 7.09886 37.0531 7.19736 36.6155 7.39437C36.178 7.59138 35.8392 7.86579 35.5992 8.21759C35.3734 8.56939 35.2605 8.95638 35.2605 9.37854C35.2605 9.94142 35.451 10.3917 35.8321 10.7295C36.2274 11.0531 36.8484 11.3064 37.6953 11.4894L39.9607 11.9748C41.4851 12.2704 42.6213 12.7629 43.3694 13.4524C44.1316 14.142 44.5127 15.0285 44.5127 16.112C44.5127 17.069 44.2657 17.9203 43.7717 18.6661C43.2918 19.3979 42.6072 19.9748 41.718 20.397C40.8287 20.8051 39.8054 21.0091 38.648 21.0091Z" fill="url(#paint1_linear_16412_16532)"/>
<path d="M38.648 21.0091C37.4624 21.0091 36.3826 20.791 35.4087 20.3548C34.4348 19.9186 33.6444 19.3064 33.0374 18.5184C32.4446 17.7303 32.0988 16.8227 32 15.7954L34.4136 15.3733C34.456 16.0487 34.6677 16.6538 35.0488 17.1886C35.4299 17.7233 35.938 18.1455 36.5732 18.4551C37.2083 18.7646 37.9141 18.9194 38.6904 18.9194C39.3538 18.9194 39.9325 18.8139 40.4265 18.6028C40.9346 18.3777 41.3228 18.0821 41.5909 17.7163C41.8732 17.3504 42.0144 16.9353 42.0144 16.4709C42.0144 15.9221 41.7885 15.4788 41.3369 15.1411C40.8852 14.7893 40.1654 14.5008 39.1773 14.2756L36.9543 13.7901C35.5004 13.4665 34.4277 12.981 33.7361 12.3337C33.0586 11.6864 32.7198 10.8209 32.7198 9.73738C32.7198 8.82269 32.9457 8.00651 33.3974 7.28883C33.8631 6.55708 34.5054 5.99419 35.324 5.60017C36.1427 5.20616 37.0813 5.00915 38.1399 5.00915C39.0997 5.00915 39.9678 5.18505 40.7441 5.53685C41.5345 5.88865 42.1838 6.38821 42.6919 7.03553C43.2 7.66878 43.5176 8.40053 43.6446 9.23078L41.2945 9.8007C41.2522 9.26596 41.0899 8.80158 40.8076 8.40756C40.5253 7.99947 40.1512 7.68285 39.6855 7.45769C39.2197 7.21847 38.7045 7.09886 38.1399 7.09886C37.5612 7.09886 37.0531 7.19736 36.6155 7.39437C36.178 7.59138 35.8392 7.86579 35.5992 8.21759C35.3734 8.56939 35.2605 8.95638 35.2605 9.37854C35.2605 9.94142 35.451 10.3917 35.8321 10.7295C36.2274 11.0531 36.8484 11.3064 37.6953 11.4894L39.9607 11.9748C41.4851 12.2704 42.6213 12.7629 43.3694 13.4524C44.1316 14.142 44.5127 15.0285 44.5127 16.112C44.5127 17.069 44.2657 17.9203 43.7717 18.6661C43.2918 19.3979 42.6072 19.9748 41.718 20.397C40.8287 20.8051 39.8054 21.0091 38.648 21.0091Z" fill="#030303"/>
<path d="M55.0504 21.0091C53.4272 21.0091 52.0086 20.6855 50.7948 20.0382C49.5809 19.3768 48.6493 18.448 48.0001 17.2519C47.3508 16.0417 47.0262 14.6274 47.0262 13.0091C47.0262 11.3909 47.3296 9.98364 47.9366 8.78751C48.5576 7.57731 49.4398 6.64855 50.5831 6.00123C51.7264 5.33984 53.0673 5.00915 54.6058 5.00915C55.7349 5.00915 56.7653 5.22726 57.6969 5.6635C58.6284 6.08566 59.4048 6.6978 60.0258 7.49991C60.6468 8.28795 61.0703 9.21671 61.2961 10.2862L58.9037 10.8561C58.7766 10.1103 58.5155 9.46297 58.1203 8.91416C57.7251 8.36535 57.224 7.95022 56.6171 7.66878C56.0243 7.37326 55.3538 7.2255 54.6058 7.2255C53.5895 7.2255 52.7003 7.45769 51.9381 7.92207C51.1759 8.38645 50.5901 9.05488 50.1808 9.92735C49.7715 10.7998 49.5668 11.8271 49.5668 13.0091C49.5668 14.1912 49.7926 15.2185 50.2443 16.0909C50.696 16.9634 51.3311 17.6389 52.1498 18.1173C52.9826 18.5817 53.9494 18.8139 55.0504 18.8139C55.9396 18.8139 56.7441 18.631 57.464 18.2651C58.1979 17.8851 58.7978 17.3645 59.2636 16.7031C59.7435 16.0276 60.047 15.2396 60.174 14.339L62.5876 14.8456C62.4041 16.0839 61.9736 17.1675 61.2961 18.0962C60.6186 19.025 59.7435 19.7427 58.6708 20.2493C57.5981 20.7558 56.3913 21.0091 55.0504 21.0091Z" fill="url(#paint2_linear_16412_16532)"/>
<path d="M55.0504 21.0091C53.4272 21.0091 52.0086 20.6855 50.7948 20.0382C49.5809 19.3768 48.6493 18.448 48.0001 17.2519C47.3508 16.0417 47.0262 14.6274 47.0262 13.0091C47.0262 11.3909 47.3296 9.98364 47.9366 8.78751C48.5576 7.57731 49.4398 6.64855 50.5831 6.00123C51.7264 5.33984 53.0673 5.00915 54.6058 5.00915C55.7349 5.00915 56.7653 5.22726 57.6969 5.6635C58.6284 6.08566 59.4048 6.6978 60.0258 7.49991C60.6468 8.28795 61.0703 9.21671 61.2961 10.2862L58.9037 10.8561C58.7766 10.1103 58.5155 9.46297 58.1203 8.91416C57.7251 8.36535 57.224 7.95022 56.6171 7.66878C56.0243 7.37326 55.3538 7.2255 54.6058 7.2255C53.5895 7.2255 52.7003 7.45769 51.9381 7.92207C51.1759 8.38645 50.5901 9.05488 50.1808 9.92735C49.7715 10.7998 49.5668 11.8271 49.5668 13.0091C49.5668 14.1912 49.7926 15.2185 50.2443 16.0909C50.696 16.9634 51.3311 17.6389 52.1498 18.1173C52.9826 18.5817 53.9494 18.8139 55.0504 18.8139C55.9396 18.8139 56.7441 18.631 57.464 18.2651C58.1979 17.8851 58.7978 17.3645 59.2636 16.7031C59.7435 16.0276 60.047 15.2396 60.174 14.339L62.5876 14.8456C62.4041 16.0839 61.9736 17.1675 61.2961 18.0962C60.6186 19.025 59.7435 19.7427 58.6708 20.2493C57.5981 20.7558 56.3913 21.0091 55.0504 21.0091Z" fill="#030303"/>
<path d="M65.6352 5.53685H68.1758V20.4814H65.6352V5.53685Z" fill="url(#paint3_linear_16412_16532)"/>
<path d="M65.6352 5.53685H68.1758V20.4814H65.6352V5.53685Z" fill="#030303"/>
<path d="M77.8972 21.0091C76.7116 21.0091 75.6318 20.791 74.6579 20.3548C73.684 19.9186 72.8936 19.3064 72.2866 18.5184C71.6938 17.7303 71.348 16.8227 71.2492 15.7954L73.6628 15.3733C73.7052 16.0487 73.9169 16.6538 74.298 17.1886C74.6791 17.7233 75.1872 18.1455 75.8224 18.4551C76.4575 18.7646 77.1633 18.9194 77.9396 18.9194C78.603 18.9194 79.1817 18.8139 79.6757 18.6028C80.1838 18.3777 80.572 18.0821 80.8401 17.7163C81.1224 17.3504 81.2636 16.9353 81.2636 16.4709C81.2636 15.9221 81.0378 15.4788 80.5861 15.1411C80.1344 14.7893 79.4146 14.5008 78.4265 14.2756L76.2035 13.7901C74.7497 13.4665 73.6769 12.981 72.9853 12.3337C72.3078 11.6864 71.9691 10.8209 71.9691 9.73738C71.9691 8.82269 72.1949 8.00651 72.6466 7.28883C73.1123 6.55708 73.7546 5.99419 74.5732 5.60017C75.3919 5.20616 76.3305 5.00915 77.3891 5.00915C78.3489 5.00915 79.217 5.18505 79.9933 5.53685C80.7837 5.88865 81.433 6.38821 81.9411 7.03553C82.4492 7.66878 82.7668 8.40053 82.8938 9.23078L80.5437 9.8007C80.5014 9.26596 80.3391 8.80158 80.0568 8.40756C79.7745 7.99947 79.4005 7.68285 78.9347 7.45769C78.4689 7.21847 77.9537 7.09886 77.3891 7.09886C76.8104 7.09886 76.3023 7.19736 75.8647 7.39437C75.4272 7.59138 75.0884 7.86579 74.8485 8.21759C74.6226 8.56939 74.5097 8.95638 74.5097 9.37854C74.5097 9.94142 74.7003 10.3917 75.0813 10.7295C75.4766 11.0531 76.0976 11.3064 76.9445 11.4894L79.2099 11.9748C80.7343 12.2704 81.8705 12.7629 82.6186 13.4524C83.3808 14.142 83.7619 15.0285 83.7619 16.112C83.7619 17.069 83.5149 17.9203 83.0209 18.6661C82.541 19.3979 81.8564 19.9748 80.9672 20.397C80.078 20.8051 79.0546 21.0091 77.8972 21.0091Z" fill="url(#paint4_linear_16412_16532)"/>
<path d="M77.8972 21.0091C76.7116 21.0091 75.6318 20.791 74.6579 20.3548C73.684 19.9186 72.8936 19.3064 72.2866 18.5184C71.6938 17.7303 71.348 16.8227 71.2492 15.7954L73.6628 15.3733C73.7052 16.0487 73.9169 16.6538 74.298 17.1886C74.6791 17.7233 75.1872 18.1455 75.8224 18.4551C76.4575 18.7646 77.1633 18.9194 77.9396 18.9194C78.603 18.9194 79.1817 18.8139 79.6757 18.6028C80.1838 18.3777 80.572 18.0821 80.8401 17.7163C81.1224 17.3504 81.2636 16.9353 81.2636 16.4709C81.2636 15.9221 81.0378 15.4788 80.5861 15.1411C80.1344 14.7893 79.4146 14.5008 78.4265 14.2756L76.2035 13.7901C74.7497 13.4665 73.6769 12.981 72.9853 12.3337C72.3078 11.6864 71.9691 10.8209 71.9691 9.73738C71.9691 8.82269 72.1949 8.00651 72.6466 7.28883C73.1123 6.55708 73.7546 5.99419 74.5732 5.60017C75.3919 5.20616 76.3305 5.00915 77.3891 5.00915C78.3489 5.00915 79.217 5.18505 79.9933 5.53685C80.7837 5.88865 81.433 6.38821 81.9411 7.03553C82.4492 7.66878 82.7668 8.40053 82.8938 9.23078L80.5437 9.8007C80.5014 9.26596 80.3391 8.80158 80.0568 8.40756C79.7745 7.99947 79.4005 7.68285 78.9347 7.45769C78.4689 7.21847 77.9537 7.09886 77.3891 7.09886C76.8104 7.09886 76.3023 7.19736 75.8647 7.39437C75.4272 7.59138 75.0884 7.86579 74.8485 8.21759C74.6226 8.56939 74.5097 8.95638 74.5097 9.37854C74.5097 9.94142 74.7003 10.3917 75.0813 10.7295C75.4766 11.0531 76.0976 11.3064 76.9445 11.4894L79.2099 11.9748C80.7343 12.2704 81.8705 12.7629 82.6186 13.4524C83.3808 14.142 83.7619 15.0285 83.7619 16.112C83.7619 17.069 83.5149 17.9203 83.0209 18.6661C82.541 19.3979 81.8564 19.9748 80.9672 20.397C80.078 20.8051 79.0546 21.0091 77.8972 21.0091Z" fill="#030303"/>
<path d="M86.8047 5.53685H93.2198C94.3066 5.53685 95.2735 5.7409 96.1204 6.14899C96.9814 6.54301 97.6518 7.09886 98.1317 7.81653C98.6116 8.53421 98.8516 9.34336 98.8516 10.244C98.8516 11.1446 98.6116 11.9537 98.1317 12.6714C97.6518 13.3891 96.9814 13.952 96.1204 14.3601C95.2735 14.7541 94.3066 14.9511 93.2198 14.9511H89.2818V20.4814H86.8047V5.53685ZM93.0716 12.8403C93.6926 12.8403 94.2502 12.7277 94.7442 12.5026C95.2382 12.2774 95.6264 11.9678 95.9087 11.5738C96.1909 11.1798 96.3321 10.7365 96.3321 10.244C96.3321 9.48408 96.0216 8.85787 95.4005 8.36535C94.7936 7.87282 94.0173 7.62656 93.0716 7.62656H89.2818V12.8403H93.0716Z" fill="url(#paint5_linear_16412_16532)"/>
<path d="M86.8047 5.53685H93.2198C94.3066 5.53685 95.2735 5.7409 96.1204 6.14899C96.9814 6.54301 97.6518 7.09886 98.1317 7.81653C98.6116 8.53421 98.8516 9.34336 98.8516 10.244C98.8516 11.1446 98.6116 11.9537 98.1317 12.6714C97.6518 13.3891 96.9814 13.952 96.1204 14.3601C95.2735 14.7541 94.3066 14.9511 93.2198 14.9511H89.2818V20.4814H86.8047V5.53685ZM93.0716 12.8403C93.6926 12.8403 94.2502 12.7277 94.7442 12.5026C95.2382 12.2774 95.6264 11.9678 95.9087 11.5738C96.1909 11.1798 96.3321 10.7365 96.3321 10.244C96.3321 9.48408 96.0216 8.85787 95.4005 8.36535C94.7936 7.87282 94.0173 7.62656 93.0716 7.62656H89.2818V12.8403H93.0716Z" fill="#030303"/>
<path d="M104.869 5.53685H107.917L113.57 20.4814H110.881L109.696 17.1675H103.111L101.883 20.4814H99.1944L104.869 5.53685ZM109.061 15.12L106.414 7.83764H106.372L103.725 15.12H109.061Z" fill="url(#paint6_linear_16412_16532)"/>
<path d="M104.869 5.53685H107.917L113.57 20.4814H110.881L109.696 17.1675H103.111L101.883 20.4814H99.1944L104.869 5.53685ZM109.061 15.12L106.414 7.83764H106.372L103.725 15.12H109.061Z" fill="#030303"/>
<path d="M122.85 21.0091C121.227 21.0091 119.809 20.6855 118.595 20.0382C117.381 19.3768 116.449 18.448 115.8 17.2519C115.151 16.0417 114.826 14.6274 114.826 13.0091C114.826 11.3909 115.13 9.98364 115.737 8.78751C116.358 7.57731 117.24 6.64855 118.383 6.00123C119.526 5.33984 120.867 5.00915 122.406 5.00915C123.535 5.00915 124.565 5.22726 125.497 5.6635C126.428 6.08566 127.205 6.6978 127.826 7.49991C128.447 8.28795 128.87 9.21671 129.096 10.2862L126.704 10.8561C126.577 10.1103 126.315 9.46297 125.92 8.91416C125.525 8.36535 125.024 7.95022 124.417 7.66878C123.824 7.37326 123.154 7.2255 122.406 7.2255C121.389 7.2255 120.5 7.45769 119.738 7.92207C118.976 8.38645 118.39 9.05488 117.981 9.92735C117.571 10.7998 117.367 11.8271 117.367 13.0091C117.367 14.1912 117.593 15.2185 118.044 16.0909C118.496 16.9634 119.131 17.6389 119.95 18.1173C120.783 18.5817 121.749 18.8139 122.85 18.8139C123.74 18.8139 124.544 18.631 125.264 18.2651C125.998 17.8851 126.598 17.3645 127.064 16.7031C127.543 16.0276 127.847 15.2396 127.974 14.339L130.388 14.8456C130.204 16.0839 129.774 17.1675 129.096 18.0962C128.419 19.025 127.543 19.7427 126.471 20.2493C125.398 20.7558 124.191 21.0091 122.85 21.0091Z" fill="url(#paint7_linear_16412_16532)"/>
<path d="M122.85 21.0091C121.227 21.0091 119.809 20.6855 118.595 20.0382C117.381 19.3768 116.449 18.448 115.8 17.2519C115.151 16.0417 114.826 14.6274 114.826 13.0091C114.826 11.3909 115.13 9.98364 115.737 8.78751C116.358 7.57731 117.24 6.64855 118.383 6.00123C119.526 5.33984 120.867 5.00915 122.406 5.00915C123.535 5.00915 124.565 5.22726 125.497 5.6635C126.428 6.08566 127.205 6.6978 127.826 7.49991C128.447 8.28795 128.87 9.21671 129.096 10.2862L126.704 10.8561C126.577 10.1103 126.315 9.46297 125.92 8.91416C125.525 8.36535 125.024 7.95022 124.417 7.66878C123.824 7.37326 123.154 7.2255 122.406 7.2255C121.389 7.2255 120.5 7.45769 119.738 7.92207C118.976 8.38645 118.39 9.05488 117.981 9.92735C117.571 10.7998 117.367 11.8271 117.367 13.0091C117.367 14.1912 117.593 15.2185 118.044 16.0909C118.496 16.9634 119.131 17.6389 119.95 18.1173C120.783 18.5817 121.749 18.8139 122.85 18.8139C123.74 18.8139 124.544 18.631 125.264 18.2651C125.998 17.8851 126.598 17.3645 127.064 16.7031C127.543 16.0276 127.847 15.2396 127.974 14.339L130.388 14.8456C130.204 16.0839 129.774 17.1675 129.096 18.0962C128.419 19.025 127.543 19.7427 126.471 20.2493C125.398 20.7558 124.191 21.0091 122.85 21.0091Z" fill="#030303"/>
<path d="M133.435 5.53685H143.788V7.68989H135.891V11.806H142.941V13.8113H135.891V18.3284H144V20.4814H133.435V5.53685Z" fill="url(#paint8_linear_16412_16532)"/>
<path d="M133.435 5.53685H143.788V7.68989H135.891V11.806H142.941V13.8113H135.891V18.3284H144V20.4814H133.435V5.53685Z" fill="#030303"/>
<defs>
<linearGradient id="paint0_linear_16412_16532" x1="8.47016" y1="2.0302" x2="20.969" y2="20.4794" gradientUnits="userSpaceOnUse">
<stop stop-color="#71BFD8"/>
<stop offset="1" stop-color="#FF822A"/>
</linearGradient>
<linearGradient id="paint1_linear_16412_16532" x1="137.364" y1="5.00914" x2="125.456" y2="-20.4446" gradientUnits="userSpaceOnUse">
<stop stop-color="#71BFD8"/>
<stop offset="1" stop-color="#FF822A"/>
</linearGradient>
<linearGradient id="paint2_linear_16412_16532" x1="137.364" y1="5.00914" x2="125.456" y2="-20.4446" gradientUnits="userSpaceOnUse">
<stop stop-color="#71BFD8"/>
<stop offset="1" stop-color="#FF822A"/>
</linearGradient>
<linearGradient id="paint3_linear_16412_16532" x1="137.364" y1="5.00914" x2="125.456" y2="-20.4446" gradientUnits="userSpaceOnUse">
<stop stop-color="#71BFD8"/>
<stop offset="1" stop-color="#FF822A"/>
</linearGradient>
<linearGradient id="paint4_linear_16412_16532" x1="137.364" y1="5.00914" x2="125.456" y2="-20.4446" gradientUnits="userSpaceOnUse">
<stop stop-color="#71BFD8"/>
<stop offset="1" stop-color="#FF822A"/>
</linearGradient>
<linearGradient id="paint5_linear_16412_16532" x1="137.364" y1="5.00914" x2="125.456" y2="-20.4446" gradientUnits="userSpaceOnUse">
<stop stop-color="#71BFD8"/>
<stop offset="1" stop-color="#FF822A"/>
</linearGradient>
<linearGradient id="paint6_linear_16412_16532" x1="137.364" y1="5.00914" x2="125.456" y2="-20.4446" gradientUnits="userSpaceOnUse">
<stop stop-color="#71BFD8"/>
<stop offset="1" stop-color="#FF822A"/>
</linearGradient>
<linearGradient id="paint7_linear_16412_16532" x1="137.364" y1="5.00914" x2="125.456" y2="-20.4446" gradientUnits="userSpaceOnUse">
<stop stop-color="#71BFD8"/>
<stop offset="1" stop-color="#FF822A"/>
</linearGradient>
<linearGradient id="paint8_linear_16412_16532" x1="137.364" y1="5.00914" x2="125.456" y2="-20.4446" gradientUnits="userSpaceOnUse">
<stop stop-color="#71BFD8"/>
<stop offset="1" stop-color="#FF822A"/>
</linearGradient>
</defs>
</svg>
