<svg xmlns="http://www.w3.org/2000/svg" class="sc-dkdnUF cjXUMu" fill="none" viewBox="0 0 432 144"><path fill="url(#h0p16)" d="M207.529 20.5714C235.891 20.5714 258.958 43.6389 258.958 72C258.958 100.361 235.891 123.429 207.529 123.429C179.168 123.429 156.101 100.361 156.101 72C156.101 43.6389 179.168 20.5714 207.529 20.5714ZM207.529 0C167.772 0 135.529 32.2423 135.529 72C135.529 111.771 167.772 144 207.529 144C247.287 144 279.529 111.758 279.529 72C279.529 32.2423 247.287 0 207.529 0Z"></path><path fill="url(#gudth)" d="M431.865 8.35593C431.865 6.09711 430.037 4.24898 427.804 4.24898H415.582C413.741 4.24898 412.184 5.52214 411.697 7.23337V71.3429H411.521C411.521 97.7643 390.271 119.257 364.147 119.257C338.024 119.257 316.774 97.7643 316.774 71.3429V7.98631C316.584 5.89176 314.865 4.23529 312.754 4.23529H300.531C298.298 4.23529 296.471 6.08342 296.471 8.34224V71.3155V72.6845H296.511C297.229 109.852 327.236 139.765 364.147 139.765C401.058 139.765 431.066 109.852 431.783 72.6845H432"></path><path fill="url(#xlxyd)" d="M77.9318 71.8018C109.756 66.9776 134.336 39.8635 135.529 6.7499C135.326 5.4926 134.349 4.48129 133.115 4.23529H118.247C116.457 4.65895 115.1 6.28525 115.1 8.2122V7.66555C113.35 32.4427 92.7856 52.0676 67.7579 52.0676C42.7031 52.0676 22.1383 32.4153 20.4156 7.61088C20.1714 5.95725 18.9369 4.61795 17.3363 4.23529H2.19755C0.935995 4.59062 0.0135652 5.73859 0 7.11889C1.35651 40.0822 25.8687 67.0049 57.5841 71.8018V136.403C57.9368 138.316 59.5917 139.765 61.5858 139.765H73.7944C76.0327 139.765 77.864 137.92 77.864 135.665"></path><defs><linearGradient id="h0p16" x1="207.53" x2="207.53" y1="0" y2="144" gradientUnits="userSpaceOnUse"><stop stop-color="#FB00FF"></stop><stop offset="1" stop-color="#FFCC00"></stop></linearGradient><linearGradient id="gudth" x1="364.234" y1="4.23529" x2="364.234" y2="139.765" gradientUnits="userSpaceOnUse"><stop stop-color="#00D77C"></stop><stop offset="1" stop-color="#43DDEB"></stop></linearGradient><linearGradient id="xlxyd" x1="67.7649" y1="4.23529" x2="67.7649" y2="139.765" gradientUnits="userSpaceOnUse"><stop offset="0.0625" stop-color="#007AFF"></stop><stop offset="0.885417" stop-color="#8D41E5"></stop></linearGradient></defs></svg>